<svg width="16" height="20" viewBox="0 0 16 20" fill="none" xmlns="http://www.w3.org/2000/svg">
<path d="M15.6647 15.3054C15.3774 15.9691 15.0374 16.5799 14.6434 17.1416C14.1064 17.9072 13.6667 18.4372 13.3279 18.7315C12.8026 19.2146 12.2398 19.462 11.6371 19.476C11.2045 19.476 10.6827 19.3529 10.0753 19.1032C9.46598 18.8546 8.906 18.7315 8.39396 18.7315C7.85696 18.7315 7.28102 18.8546 6.66499 19.1032C6.04801 19.3529 5.55099 19.4831 5.17098 19.496C4.59305 19.5206 4.017 19.2662 3.44201 18.7315C3.07501 18.4114 2.61598 17.8627 2.06607 17.0853C1.47607 16.2552 0.991001 15.2925 0.610992 14.1951C0.204016 13.0097 0 11.8618 0 10.7505C0 9.4775 0.27507 8.37956 0.82603 7.4595C1.25904 6.72047 1.83509 6.1375 2.55606 5.70954C3.27703 5.28157 4.05605 5.06349 4.89497 5.04953C5.35401 5.04953 5.95597 5.19152 6.70403 5.47058C7.44998 5.75058 7.92895 5.89257 8.13894 5.89257C8.29594 5.89257 8.82802 5.72654 9.73003 5.39554C10.583 5.08858 11.3029 4.96148 11.8927 5.01155C13.4908 5.14052 14.6915 5.77051 15.49 6.90549C14.0607 7.7715 13.3537 8.98446 13.3677 10.5405C13.3806 11.7525 13.8203 12.7611 14.6845 13.5619C15.0761 13.9336 15.5134 14.2209 16 14.4249C15.8945 14.7309 15.7831 15.024 15.6647 15.3054ZM11.9994 0.882453C11.9994 1.83243 11.6524 2.71942 10.9606 3.5404C10.1258 4.5164 9.11599 5.08037 8.02099 4.99138C8.00704 4.87741 7.99895 4.75746 7.99895 4.63142C7.99895 3.71944 8.39596 2.74345 9.10098 1.94545C9.45297 1.5414 9.90063 1.20544 10.4435 0.937443C10.9852 0.673441 11.4976 0.527443 11.9795 0.502441C11.9936 0.629438 11.9994 0.756455 11.9994 0.882453Z" fill="white" fill-opacity="0.92"/>
</svg>
