<svg width="16" height="16" viewBox="0 0 16 16" fill="none" xmlns="http://www.w3.org/2000/svg">
<path d="M16 8C16 3.58125 12.4187 0 8 0C3.58125 0 0 3.58125 0 8C0 11.9934 2.92375 15.3031 6.75063 15.9034V10.3144H4.72094V8H6.75063V6.23781C6.75063 4.23438 7.94281 3.12562 9.77094 3.12562C10.6475 3.12562 11.5638 3.28344 11.5638 3.28344V5.25156H10.5556C9.56063 5.25156 9.25375 5.86969 9.25375 6.50094V8H11.4719L11.1169 10.3144H9.25375V15.9034C13.0763 15.3031 16 11.9934 16 8Z" fill="#1877F2"/>
<path d="M11.1124 10.3142L11.4677 7.99986H9.24961V6.5008C9.24961 5.86955 9.56086 5.25143 10.5515 5.25143H11.5596V3.2833C11.5596 3.2833 10.6434 3.12549 9.7668 3.12549C7.93898 3.12549 6.74648 4.23455 6.74648 6.23768V7.99986H4.7168V10.3142H6.74648V15.9033C7.1543 15.9689 7.57055 15.9999 7.99586 15.9999C8.42117 15.9999 8.83742 15.9649 9.24523 15.9033V10.3142H11.1124Z" fill="white"/>
</svg>
